<svg xmlns="http://www.w3.org/2000/svg" viewBox="0 0 48 48"><path d="M14.35 43.95q-1.5 0-2.55-1.05-1.05-1.05-1.05-2.55 0-1.5 1.05-2.55 1.05-1.05 2.55-1.05 1.45 0 2.53 1.05 1.07 1.05 1.07 2.55 0 1.5-1.05 2.55-1.05 1.05-2.55 1.05Zm20 0q-1.5 0-2.55-1.05-1.05-1.05-1.05-2.55 0-1.5 1.05-2.55 1.05-1.05 2.55-1.05 1.45 0 2.52 1.05 1.08 1.05 1.08 2.55 0 1.5-1.05 2.55-1.05 1.05-2.55 1.05Zm-22.6-33 5.5 11.4h14.4l6.25-11.4Zm2.1 22.6q-2.1 0-3.03-1.4-.92-1.4.03-3.15l3.2-5.9L6.45 7H4q-.6 0-1.02-.45-.43-.45-.43-1.1 0-.6.43-1.03Q3.4 4 4.04 4h3.4q.45 0 .8.22.35.23.55.63l1.45 3.1H39.7q1.6 0 2.02.98.43.97-.27 2.17L34.7 23.25q-.5.85-1.4 1.48-.9.62-1.95.62H16.2l-2.8 5.2h23.1q.6 0 1.02.45.43.45.43 1.05 0 .65-.43 1.08-.42.42-1.07.42Zm3.4-11.2h14.4Z"/></svg>