<svg xmlns="http://www.w3.org/2000/svg" xml:space="preserve" viewBox="0 0 591 669"><g fill="none" stroke="#000" stroke-miterlimit="10" stroke-width="10"><path d="M179 40h243c22 0 22 43 0 43H179c-24 0-23-43 0-43z"/><path d="M169 5h256c23 0 62 30 62 69v42c0 4-3 7-7 7H114c-4 0-7-3-7-7V74c0-38 39-69 62-69zm-64 120-88 90c-5 5-2 12 5 12h362l5-2 87-90c4-5 1-12-5-12H110l-5 2zM5 234v423c0 4 3 7 7 7h368c4 0 7-3 7-7V234c0-4-3-7-7-7H12c-4 0-7 3-7 7z"/><path d="M394 664h185c4 0 7-3 7-7V235l-2-5-92-101c-3-3-7-4-10-1l-93 97-2 5v427c0 4 3 7 7 7z"/><path stroke-linecap="round" d="M435 320h108m-108 44h108m-108 44h108m-108 44h108"/><path d="M460 530h-10c-4 0-7 3-7 7v11m17 46h-10c-4 0-7-3-7-7v-11m72-46h10c4 0 7 3 7 7v11m0 28v11c0 4-3 7-7 7h-10"/><circle cx="147.5" cy="363" r="27.5"/><circle cx="229" cy="363" r="27.5"/><circle cx="92" cy="409" r="21"/><circle cx="288.5" cy="411" r="21"/><path d="M188 412c30 0 54 24 63 41 5 10 9 38 0 44-13 9-47-10-63-9s-50 18-63 9c-9-6-5-34 0-44 9-17 33-41 63-41z"/></g><path fill="none" stroke="#000" stroke-miterlimit="10" stroke-width="10" d="M107 78v42l-2 5L7 225l-2 5v423m356 11h50m76-582v38l2 5 95 105 2 5v35"/></svg>