<svg xmlns="http://www.w3.org/2000/svg" xml:space="preserve" viewBox="0 0 249 298"><path fill="none" d="M71 101a294 294 0 0 1 98-3"/><path fill="none" stroke="#000" stroke-linecap="round" stroke-linejoin="round" stroke-miterlimit="10" stroke-width="6" d="M22 120s13-12 49-19"/><path fill="none" stroke="#000" stroke-linecap="round" stroke-linejoin="round" stroke-miterlimit="10" stroke-width="6" d="M52 136C86 63 152 6 190 15c13 3 27 35-21 83"/><path fill="none" stroke="#000" stroke-linecap="round" stroke-linejoin="round" stroke-miterlimit="10" stroke-width="6" d="M126 39C90 39 76 19 99 7c8-5 35-9 57 12"/><ellipse cx="119.6" cy="20.8" rx="6" ry="13" transform="rotate(-87 120 21)"/><ellipse cx="172.4" cy="39.4" rx="10" ry="7" transform="rotate(-39 172 39)"/><path fill="none" stroke="#000" stroke-linecap="round" stroke-linejoin="round" stroke-miterlimit="10" stroke-width="8" d="M139 126c6-3 14-3 17 2"/><path fill="none" stroke="#000" stroke-linecap="round" stroke-linejoin="round" stroke-miterlimit="10" stroke-width="7" d="M170 126c3 0 5-1 8 2"/><path fill="none" stroke="#000" stroke-linecap="round" stroke-linejoin="round" stroke-miterlimit="10" stroke-width="6" d="M184 82c35 8 62 22 62 38 0 22-38 46-121 46-81 0-121-25-121-46 0-18 37-35 83-42"/><path fill="none" d="M87 78a273 273 0 0 1 97 4"/><path fill="none" stroke="#000" stroke-linecap="round" stroke-linejoin="round" stroke-miterlimit="10" stroke-width="6" d="M244 129v110s-18 37-119 37C22 276 6 238 6 238V129"/><path fill="none" stroke="#000" stroke-linecap="round" stroke-linejoin="round" stroke-miterlimit="10" stroke-width="6" d="M6 238c-16 32 43 57 119 57 77 0 135-25 119-57"/><path fill="none" stroke="#000" stroke-linecap="round" stroke-linejoin="round" stroke-miterlimit="10" stroke-width="6" d="M190 219c8 5 14 14 5 24-13 13-34-9-34-9s-19 15-57 17c-6 0-44 1-50-32 6-33 44-33 50-32 38 2 57 17 57 17s21-22 34-9c9 9 3 19-5 24z"/><circle cx="81.3" cy="209.7" r="6" fill="none" stroke="#000" stroke-linecap="round" stroke-linejoin="round" stroke-miterlimit="10" stroke-width="4"/><path d="M169 98c41 6 56 20 58 22-2 2-5 6-12 10 0 0-4-7-11-10-6-2-16-1-16-1s-6-6-14-7c-7-1-15 1-15 1s-8-7-17-6l27-9z"/><g fill="none" stroke="#000" stroke-linecap="round" stroke-linejoin="round" stroke-miterlimit="10"><path stroke-width="6" d="M20 116s5 12 31 21c16 5 39 10 74 10 50 0 76-9 90-17 7-4 10-8 12-10l3-4"/><path stroke-width="6" d="M169 98c41 6 56 20 58 22h1M51 137h0l91-30 27-9"/><path d="M142 107c9-1 17 6 17 6s8-2 15-1c8 1 14 7 14 7s10-1 16 1c7 3 11 10 11 10"/></g></svg>