<svg xmlns="http://www.w3.org/2000/svg" viewBox="0 0 48 48"><path d="M8.5 23.75q-1.9 0-3.2-1.3-1.3-1.3-1.3-3.2 0-1.9 1.3-3.2 1.3-1.3 3.2-1.3 1.9 0 3.2 1.3 1.3 1.3 1.3 3.2 0 1.9-1.3 3.2-1.3 1.3-3.2 1.3Zm9.25-8.5q-1.9 0-3.2-1.3-1.3-1.3-1.3-3.2 0-1.9 1.3-3.2 1.3-1.3 3.2-1.3 1.9 0 3.2 1.3 1.3 1.3 1.3 3.2 0 1.9-1.3 3.2-1.3 1.3-3.2 1.3Zm12.5 0q-1.9 0-3.2-1.3-1.3-1.3-1.3-3.2 0-1.9 1.3-3.2 1.3-1.3 3.2-1.3 1.9 0 3.2 1.3 1.3 1.3 1.3 3.2 0 1.9-1.3 3.2-1.3 1.3-3.2 1.3Zm9.25 8.5q-1.9 0-3.2-1.3-1.3-1.3-1.3-3.2 0-1.75 1.3-3.13 1.3-1.37 3.2-1.37 1.9 0 3.2 1.3 1.3 1.3 1.3 3.2 0 1.9-1.3 3.2-1.3 1.3-3.2 1.3Zm-26.2 20.5q-2.1 0-3.45-1.58Q8.5 41.1 8.5 38.95q0-2.1 1.28-3.73 1.27-1.62 2.72-3.12 1.1-1.1 2.05-2.33.95-1.22 1.8-2.52 1.45-2.2 3.25-4.1 1.8-1.9 4.4-1.9 2.6 0 4.43 1.9 1.82 1.9 3.27 4.15.85 1.3 1.78 2.5.92 1.2 2.02 2.3 1.45 1.5 2.73 3.13 1.27 1.62 1.27 3.72 0 2.15-1.35 3.72-1.35 1.58-3.45 1.58-2.7 0-5.35-.45-2.65-.45-5.35-.45-2.7 0-5.35.45-2.65.45-5.35.45Z"/></svg>