<svg xmlns="http://www.w3.org/2000/svg" viewBox="0 0 48 48"><path d="M19.5 5q-.65 0-1.07-.42Q18 4.15 18 3.5q0-.65.43-1.08Q18.85 2 19.5 2h9q.65 0 1.07.42.43.43.43 1.08 0 .65-.43 1.08-.42.42-1.07.42ZM24 27.35q.65 0 1.07-.43.43-.42.43-1.07v-8.5q0-.65-.43-1.08-.42-.42-1.07-.42-.65 0-1.07.42-.43.43-.43 1.08v8.5q0 .65.43 1.07.42.43 1.07.43Zm0 16.6q-3.7 0-6.98-1.43-3.27-1.42-5.72-3.87-2.45-2.45-3.88-5.73Q6 29.65 6 25.95q0-3.7 1.42-6.97 1.43-3.28 3.88-5.73 2.45-2.45 5.72-3.88Q20.3 7.96 24 7.96q3.35 0 6.3 1.12 2.95 1.13 5.25 3.13l1.55-1.55q.4-.4 1-.4t1.05.45q.45.45.45 1.05 0 .6-.45 1.05l-1.5 1.5q1.8 2 3.08 4.85Q42 22 42 25.95q0 3.7-1.42 6.97-1.43 3.28-3.88 5.73-2.45 2.45-5.73 3.88-3.27 1.42-6.97 1.42Zm0-3q6.25 0 10.63-4.38Q39 32.2 39 25.96q0-6.25-4.38-10.63-4.37-4.37-10.62-4.37-6.25 0-10.63 4.38Q9 19.7 9 25.95q0 6.25 4.38 10.63 4.37 4.37 10.62 4.37ZM24 26Z"/></svg>